# xmcd CD database file
#
# Track frame offsets:
#	150
#	32997
#	56530
#	86470
#	115117
#	137652
#	160660
#	195325
#	218747
#	251359
#
# Disc length: 3836 seconds
#
# Revision: 0
# Processed by: cddbd v1.5PL3 Copyright (c) Steve Scherf et al.
# Submitted via: CDex 1.51
#
DISCID=7b0efa0a
DTITLE=The Dolphins - Digital Dolphins
DYEAR=1996
DGENRE=Jazz
TTITLE0=Kahla's Dream
TTITLE1=Another Vibe
TTITLE2=Unbroken Dreams
TTITLE3=The Bridge
TTITLE4=Psycho 5
TTITLE5=Snow
TTITLE6=Why
TTITLE7=Under the Coconuts
TTITLE8=Rethymnon
TTITLE9=Digital Dolphins
EXTD=YEAR: 1996
EXTT0=
EXTT1=
EXTT2=
EXTT3=
EXTT4=
EXTT5=
EXTT6=
EXTT7=
EXTT8=
EXTT9=
PLAYORDER=
